<svg width="794" height="768" viewBox="0 0 794 768" fill="none" xmlns="http://www.w3.org/2000/svg">
<g clip-path="url(#clip0_6166_57)">
<path d="M0 0H627L794 768H0V0Z" fill="#CFEBF6"/>
<path opacity="0.8" d="M168.388 656C198.425 656 222.776 649.796 222.776 642.143C222.776 634.49 198.425 628.286 168.388 628.286C138.35 628.286 114 634.49 114 642.143C114 649.796 138.35 656 168.388 656Z" fill="#64C2E7"/>
<path opacity="0.8" d="M721.448 625.219C721.448 632.875 697.1 639.076 667.061 639.076C637.022 639.076 612.673 632.875 612.673 625.219C612.673 617.563 637.022 611.361 667.061 611.361C697.1 611.361 721.448 617.563 721.448 625.219Z" fill="#64C2E7"/>
<path opacity="0.8" d="M468.968 599.556C444.789 599.556 424.304 601.868 417.229 605.059C410.75 602.882 395.933 601.36 378.66 601.36C355.427 601.36 336.599 604.111 336.599 607.517C336.599 610.922 355.427 613.673 378.66 613.673C395.922 613.673 410.75 612.151 417.229 609.975C424.293 613.165 444.777 615.477 468.968 615.477C499.007 615.477 523.356 611.914 523.356 607.517C523.356 603.119 499.007 599.556 468.968 599.556Z" fill="#64C2E7"/>
<path d="M655.072 212.85H233.187C217.063 212.85 203.993 225.929 203.993 242.064V474.762C203.993 490.897 217.063 503.976 233.187 503.976H655.072C671.196 503.976 684.266 490.897 684.266 474.762V242.064C684.266 225.929 671.196 212.85 655.072 212.85Z" fill="#152F50"/>
<path d="M644.064 228.376H257.017C248.984 228.376 242.471 234.893 242.471 242.933V473.894C242.471 481.933 248.984 488.45 257.017 488.45H644.064C652.098 488.45 658.61 481.933 658.61 473.894V242.933C658.61 234.893 652.098 228.376 644.064 228.376Z" fill="#64C2E7"/>
<path d="M233.356 358.413C233.356 363.814 228.984 368.2 223.576 368.2C218.179 368.2 213.796 363.825 213.796 358.413C213.796 353.013 218.167 348.626 223.576 348.626C228.973 348.626 233.356 353.001 233.356 358.413Z" fill="#64C2E7"/>
<path d="M628.988 244.624H274.459C267.417 244.624 261.705 250.34 261.705 257.387V457.86C261.705 464.907 267.417 470.624 274.459 470.624H628.999C636.041 470.624 641.754 464.907 641.754 457.86V257.387C641.754 250.34 636.041 244.624 628.988 244.624Z" fill="white"/>
<path d="M628.988 244.624H274.459C267.417 244.624 261.705 250.34 261.705 257.387V278.9H641.754V257.387C641.754 250.34 636.041 244.624 628.988 244.624Z" fill="#F8A72D"/>
<path d="M570.758 344.624C556.02 344.996 545.091 331.364 531.502 325.648C514.173 318.352 493.024 325.23 480.292 339.076C474.298 345.593 468.912 354.061 460.191 355.572C447.763 357.726 437.712 344.409 425.183 343C406.637 340.925 394.637 364.513 376.215 367.512C359.505 370.23 342.255 355.155 326.684 361.785C319.912 364.671 315.405 371.042 309.906 375.924C304.397 380.806 296.025 384.29 289.862 380.265V404.687H615.366V321.205C600.267 327.97 587.287 344.207 570.758 344.624Z" fill="#0096D6"/>
<path d="M314.098 434.25C314.098 440.689 308.881 445.92 302.436 445.92C295.991 445.92 290.775 440.7 290.775 434.25C290.775 427.801 295.991 422.581 302.436 422.581C308.881 422.592 314.098 427.812 314.098 434.25Z" fill="#F8A72D"/>
<path d="M437.239 428.026H324.385V440.485H437.239V428.026Z" fill="#F8A72D"/>
<path d="M615.354 417.044H502.5V423.268H615.354V417.044Z" fill="#29A87C"/>
<path d="M615.354 431.138H502.5V437.362H615.354V431.138Z" fill="#29A87C"/>
<path d="M615.354 445.232H502.5V451.456H615.354V445.232Z" fill="#29A87C"/>
<path d="M346.774 293.062H289.851V313.301H346.774V293.062Z" fill="#29A87C"/>
<path d="M625.619 261.762C625.619 265.415 622.656 268.381 619.005 268.381C615.354 268.381 612.391 265.415 612.391 261.762C612.391 258.109 615.354 255.143 619.005 255.143C622.656 255.143 625.619 258.098 625.619 261.762Z" fill="#5FC8D7"/>
<path d="M572.166 261.762C572.166 265.415 569.203 268.381 565.552 268.381C561.902 268.381 558.938 265.415 558.938 261.762C558.938 258.109 561.902 255.143 565.552 255.143C569.203 255.132 572.166 258.098 572.166 261.762Z" fill="#F7941D"/>
<path d="M599.264 261.762C599.264 265.415 596.301 268.381 592.65 268.381C589 268.381 586.036 265.415 586.036 261.762C586.036 258.109 589 255.143 592.65 255.143C596.312 255.132 599.264 258.098 599.264 261.762Z" fill="#EF4065"/>
<path d="M592.2 537.362H587.806C587.468 536.235 587.028 535.175 586.487 534.16L589.597 531.048C590.746 529.898 590.746 528.026 589.597 526.865L586.532 523.798C585.383 522.648 583.513 522.648 582.352 523.798L579.242 526.91C578.228 526.369 577.158 525.929 576.043 525.591V521.193C576.043 519.558 574.724 518.239 573.09 518.239H568.753C567.119 518.239 565.8 519.558 565.8 521.193V525.591C564.674 525.929 563.615 526.369 562.601 526.921L559.491 523.809C558.341 522.659 556.471 522.659 555.311 523.809L552.246 526.876C551.096 528.026 551.096 529.898 552.246 531.059L555.356 534.171C554.815 535.186 554.375 536.257 554.037 537.373H549.643C548.009 537.373 546.691 538.693 546.691 540.327V544.668C546.691 546.303 548.009 547.622 549.643 547.622H554.037C554.375 548.739 554.815 549.81 555.367 550.825L552.257 553.937C551.108 555.087 551.108 556.958 552.257 558.12L555.322 561.187C556.471 562.337 558.341 562.337 559.502 561.187L562.612 558.075C563.626 558.616 564.696 559.056 565.812 559.394V563.791C565.812 565.426 567.13 566.745 568.764 566.745H573.102C574.735 566.745 576.054 565.426 576.054 563.791V559.394C577.169 559.056 578.24 558.616 579.254 558.063L582.364 561.175C583.513 562.325 585.383 562.325 586.544 561.175L589.608 558.108C590.758 556.958 590.758 555.087 589.608 553.925L586.499 550.813C587.039 549.799 587.479 548.727 587.828 547.611H592.222C593.856 547.611 595.175 546.292 595.175 544.657V540.316C595.152 538.681 593.822 537.362 592.2 537.362ZM570.905 550.881C566.274 550.881 562.522 547.126 562.522 542.492C562.522 537.858 566.274 534.104 570.905 534.104C575.535 534.104 579.288 537.858 579.288 542.492C579.288 547.126 575.535 550.881 570.905 550.881Z" fill="#FF3A67"/>
<path d="M328.385 526.346H296.87C293.174 526.346 290.177 529.346 290.177 533.044V564.581C290.177 568.279 293.174 571.278 296.87 571.278H328.385C332.081 571.278 335.078 568.279 335.078 564.581V533.044C335.078 529.346 332.081 526.346 328.385 526.346Z" fill="#64C2E7"/>
<path d="M309.85 558.514L301.433 550.092C300.442 549.1 300.442 547.499 301.433 546.506C302.425 545.514 304.025 545.514 305.016 546.506L309.85 551.343L321.309 539.876C322.3 538.884 323.9 538.884 324.892 539.876C325.884 540.869 325.884 542.47 324.892 543.462L309.85 558.514Z" fill="white"/>
<path d="M673.167 139.64L660.221 172.801C663.984 174.097 668.029 174.819 672.243 174.819C689.381 174.819 703.781 163.126 707.927 147.285L673.167 139.64Z" fill="#F8A72D"/>
<path d="M672.875 136.517L708.547 144.353C708.919 142.256 709.122 140.102 709.122 137.904C709.122 117.529 692.604 101 672.233 101C660.695 101 650.396 106.299 643.636 114.609L672.875 136.517Z" fill="#FF3A67"/>
<path d="M670.429 138.423L641.844 117C637.754 122.942 635.354 130.147 635.354 137.915C635.354 153.024 644.435 166.013 657.438 171.718L670.429 138.423Z" fill="#29A87C"/>
<path d="M734 235.942H667.41V277.852H734V235.942Z" fill="#5FC8D7"/>
<path d="M667.41 235.942L700.705 258.864L734 235.942H667.41Z" fill="#8CECF4"/>
<path d="M686.891 321.408H468.461C462.084 321.408 456.924 326.572 456.924 332.954V484.335C456.924 490.717 462.084 495.881 468.461 495.881H686.891C693.269 495.881 698.429 490.717 698.429 484.335V332.954C698.429 326.572 693.257 321.408 686.891 321.408Z" fill="white"/>
<path d="M687.241 321.047H468.811C462.434 321.047 457.273 326.211 457.273 332.593V483.974C457.273 490.356 462.434 495.52 468.811 495.52H687.241C693.618 495.52 698.779 490.356 698.779 483.974V332.593C698.779 326.222 693.618 321.047 687.241 321.047Z" fill="#FEFEFE"/>
<path d="M687.601 320.698H469.172C462.794 320.698 457.634 325.862 457.634 332.243V483.625C457.634 490.006 462.794 495.17 469.172 495.17H687.601C693.979 495.17 699.139 490.006 699.139 483.625V332.243C699.139 325.862 693.967 320.698 687.601 320.698Z" fill="#FDFDFD"/>
<path d="M687.962 320.337H469.521C463.144 320.337 457.983 325.501 457.983 331.883V483.264C457.983 489.645 463.144 494.809 469.521 494.809H687.962C694.339 494.809 699.5 489.645 699.5 483.264V331.883C699.5 325.512 694.328 320.337 687.962 320.337Z" fill="#FCFCFC"/>
<path d="M688.311 319.987H469.881C463.504 319.987 458.343 325.151 458.343 331.533V482.914C458.343 489.296 463.504 494.46 469.881 494.46H688.311C694.688 494.46 699.849 489.296 699.849 482.914V331.533C699.849 325.151 694.688 319.987 688.311 319.987Z" fill="#FBFBFB"/>
<path d="M688.671 319.627H470.242C463.864 319.627 458.704 324.791 458.704 331.172V482.553C458.704 488.935 463.864 494.099 470.242 494.099H688.671C695.049 494.099 700.209 488.935 700.209 482.553V331.172C700.209 324.802 695.037 319.627 688.671 319.627Z" fill="#FAFAFA"/>
<path d="M689.021 319.266H470.591C464.214 319.266 459.053 324.43 459.053 330.812V482.193C459.053 488.575 464.214 493.739 470.591 493.739H689.021C695.398 493.739 700.559 488.575 700.559 482.193V330.812C700.559 324.441 695.398 319.266 689.021 319.266Z" fill="#F9F9FA"/>
<path d="M689.381 318.916H470.952C464.574 318.916 459.414 324.08 459.414 330.462V481.843C459.414 488.225 464.574 493.389 470.952 493.389H689.381C695.759 493.389 700.919 488.225 700.919 481.843V330.462C700.919 324.08 695.747 318.916 689.381 318.916Z" fill="#F8F8F9"/>
<path d="M689.742 318.555H471.301C464.924 318.555 459.763 323.719 459.763 330.101V481.482C459.763 487.864 464.924 493.028 471.301 493.028H689.731C696.108 493.028 701.269 487.864 701.269 481.482V330.101C701.28 323.731 696.108 318.555 689.742 318.555Z" fill="#F7F8F8"/>
<path d="M690.092 318.206H471.662C465.284 318.206 460.124 323.37 460.124 329.752V481.133C460.124 487.515 465.284 492.679 471.662 492.679H690.092C696.469 492.679 701.629 487.515 701.629 481.133V329.752C701.629 323.37 696.469 318.206 690.092 318.206Z" fill="#F6F7F7"/>
<path d="M690.452 317.845H472.022C465.645 317.845 460.484 323.009 460.484 329.391V480.772C460.484 487.154 465.645 492.318 472.022 492.318H690.452C696.829 492.318 701.99 487.154 701.99 480.772V329.391C701.99 323.02 696.818 317.845 690.452 317.845Z" fill="#F5F6F6"/>
<path d="M690.801 317.484H472.371C465.994 317.484 460.833 322.648 460.833 329.03V480.411C460.833 486.793 465.994 491.957 472.371 491.957H690.801C697.178 491.957 702.339 486.793 702.339 480.411V329.041C702.339 322.66 697.178 317.484 690.801 317.484Z" fill="#F4F5F5"/>
<path d="M691.162 317.135H472.732C466.355 317.135 461.194 322.299 461.194 328.68V480.062C461.194 486.443 466.355 491.607 472.732 491.607H691.162C697.539 491.607 702.699 486.443 702.699 480.062V328.68C702.699 322.299 697.528 317.135 691.162 317.135Z" fill="#F3F4F4"/>
<path d="M691.511 316.774H473.081C466.704 316.774 461.543 321.938 461.543 328.32V479.701C461.543 486.082 466.704 491.246 473.081 491.246H691.511C697.888 491.246 703.048 486.082 703.048 479.701V328.32C703.06 321.949 697.888 316.774 691.511 316.774Z" fill="#F2F3F3"/>
<path d="M691.872 316.424H473.442C467.064 316.424 461.904 321.588 461.904 327.97V479.351C461.904 485.733 467.064 490.897 473.442 490.897H691.872C698.249 490.897 703.409 485.733 703.409 479.351V327.97C703.409 321.588 698.249 316.424 691.872 316.424Z" fill="#F1F2F2"/>
<path d="M692.232 316.064H473.802C467.425 316.064 462.265 321.228 462.265 327.609V478.99C462.265 485.372 467.425 490.536 473.802 490.536H692.232C698.609 490.536 703.77 485.372 703.77 478.99V327.609C703.77 321.239 698.598 316.064 692.232 316.064Z" fill="#F0F1F1"/>
<path d="M692.582 315.703H474.152C467.775 315.703 462.614 320.867 462.614 327.249V478.63C462.614 485.012 467.775 490.176 474.152 490.176H692.582C698.959 490.176 704.119 485.012 704.119 478.63V327.26C704.119 320.878 698.959 315.703 692.582 315.703Z" fill="#EFF0F0"/>
<path d="M692.942 315.353H474.512C468.135 315.353 462.975 320.517 462.975 326.899V478.28C462.975 484.662 468.135 489.826 474.512 489.826H692.942C699.32 489.826 704.48 484.662 704.48 478.28V326.899C704.48 320.517 699.308 315.353 692.942 315.353Z" fill="#EEEFEF"/>
<path d="M693.291 314.993H474.861C468.484 314.993 463.323 320.157 463.323 326.538V477.919C463.323 484.301 468.484 489.465 474.861 489.465H693.291C699.668 489.465 704.829 484.301 704.829 477.919V326.538C704.84 320.168 699.668 314.993 693.291 314.993Z" fill="#EDEEEF"/>
<path d="M693.652 314.643H475.222C468.845 314.643 463.684 319.807 463.684 326.189V477.57C463.684 483.951 468.845 489.115 475.222 489.115H693.652C700.029 489.115 705.19 483.951 705.19 477.57V326.189C705.19 319.807 700.029 314.643 693.652 314.643Z" fill="#ECEDEE"/>
<path d="M694.012 314.282H475.582C469.205 314.282 464.045 319.446 464.045 325.828V477.209C464.045 483.591 469.205 488.755 475.582 488.755H694.012C700.39 488.755 705.55 483.591 705.55 477.209V325.828C705.55 319.457 700.378 314.282 694.012 314.282Z" fill="#EBECED"/>
<path d="M694.362 313.921H475.932C469.555 313.921 464.394 319.085 464.394 325.467V476.848C464.394 483.23 469.555 488.394 475.932 488.394H694.362C700.739 488.394 705.9 483.23 705.9 476.848V325.478C705.9 319.096 700.739 313.921 694.362 313.921Z" fill="#EAEBEC"/>
<path d="M694.722 313.572H476.292C469.915 313.572 464.755 318.736 464.755 325.118V476.499C464.755 482.88 469.915 488.044 476.292 488.044H694.722C701.1 488.044 706.26 482.88 706.26 476.499V325.118C706.26 318.736 701.088 313.572 694.722 313.572Z" fill="#E9EAEB"/>
<path d="M695.071 313.211H476.642C470.264 313.211 465.104 318.375 465.104 324.757V476.138C465.104 482.52 470.264 487.684 476.642 487.684H695.071C701.449 487.684 706.609 482.52 706.609 476.138V324.757C706.62 318.386 701.449 313.211 695.071 313.211Z" fill="#E8E9EA"/>
<path d="M695.432 312.862H477.002C470.625 312.862 465.464 318.026 465.464 324.407V475.788C465.464 482.17 470.625 487.334 477.002 487.334H695.432C701.809 487.334 706.97 482.17 706.97 475.788V324.407C706.97 318.026 701.809 312.862 695.432 312.862Z" fill="#E8E9E9"/>
<path d="M695.792 312.501H477.363C470.985 312.501 465.825 317.665 465.825 324.046V475.427C465.825 481.809 470.985 486.973 477.363 486.973H695.792C702.17 486.973 707.33 481.809 707.33 475.427V324.046C707.33 317.676 702.158 312.501 695.792 312.501Z" fill="#E7E8E8"/>
<path d="M696.142 312.151H477.712C471.335 312.151 466.174 317.315 466.174 323.697V475.078C466.174 481.46 471.335 486.624 477.712 486.624H696.142C702.519 486.624 707.68 481.46 707.68 475.078V323.697C707.68 317.315 702.519 312.151 696.142 312.151Z" fill="#E6E7E7"/>
<path d="M696.502 311.79H478.073C471.695 311.79 466.535 316.954 466.535 323.336V474.717C466.535 481.099 471.695 486.263 478.073 486.263H696.502C702.88 486.263 708.04 481.099 708.04 474.717V323.336C708.04 316.954 702.868 311.79 696.502 311.79Z" fill="#E5E6E6"/>
<path d="M696.851 311.429H478.422C472.044 311.429 466.884 316.593 466.884 322.975V474.356C466.884 480.738 472.044 485.902 478.422 485.902H696.851C703.229 485.902 708.389 480.738 708.389 474.356V322.975C708.389 316.605 703.229 311.429 696.851 311.429Z" fill="#E4E5E5"/>
<path d="M697.212 311.08H478.783C472.405 311.08 467.245 316.244 467.245 322.626V474.007C467.245 480.388 472.405 485.552 478.783 485.552H697.212C703.59 485.552 708.75 480.388 708.75 474.007V322.626C708.75 316.244 703.59 311.08 697.212 311.08Z" fill="#E3E4E4"/>
<path d="M697.573 310.719H479.143C472.766 310.719 467.605 315.883 467.605 322.265V473.646C467.605 480.028 472.766 485.192 479.143 485.192H697.573C703.95 485.192 709.111 480.028 709.111 473.646V322.265C709.111 315.894 703.939 310.719 697.573 310.719Z" fill="#E2E3E4"/>
<path d="M697.922 310.369H479.492C473.115 310.369 467.954 315.533 467.954 321.915V473.296C467.954 479.678 473.115 484.842 479.492 484.842H697.922C704.299 484.842 709.46 479.678 709.46 473.296V321.915C709.46 315.533 704.299 310.369 697.922 310.369Z" fill="#E1E2E3"/>
<path d="M698.283 310.009H479.853C473.475 310.009 468.315 315.173 468.315 321.555V472.936C468.315 479.317 473.475 484.481 479.853 484.481H698.283C704.66 484.481 709.82 479.317 709.82 472.936V321.555C709.82 315.173 704.649 310.009 698.283 310.009Z" fill="#E0E1E2"/>
<path d="M698.632 309.648H480.202C473.825 309.648 468.664 314.812 468.664 321.194V472.575C468.664 478.956 473.825 484.12 480.202 484.12H698.632C705.009 484.12 710.17 478.956 710.17 472.575V321.194C710.17 314.823 705.009 309.648 698.632 309.648Z" fill="#DFE0E1"/>
<path d="M698.993 309.298H480.563C474.185 309.298 469.025 314.462 469.025 320.844V472.225C469.025 478.607 474.185 483.771 480.563 483.771H698.993C705.37 483.771 710.53 478.607 710.53 472.225V320.844C710.53 314.462 705.37 309.298 698.993 309.298Z" fill="#DEDFE0"/>
<path d="M699.353 308.938H480.912C474.535 308.938 469.374 314.102 469.374 320.483V471.865C469.374 478.246 474.535 483.41 480.912 483.41H699.342C705.719 483.41 710.879 478.246 710.879 471.865V320.483C710.891 314.113 705.719 308.938 699.353 308.938Z" fill="#DDDEDF"/>
<path d="M699.702 308.588H481.272C474.895 308.588 469.735 313.752 469.735 320.134V471.504C469.735 477.885 474.895 483.05 481.272 483.05H699.702C706.08 483.05 711.24 477.885 711.24 471.504V320.134C711.24 313.752 706.08 308.588 699.702 308.588Z" fill="#DCDDDE"/>
<path d="M700.063 308.227H481.633C475.256 308.227 470.096 313.391 470.096 319.773V471.154C470.096 477.536 475.256 482.7 481.633 482.7H700.063C706.441 482.7 711.601 477.536 711.601 471.154V319.773C711.601 313.391 706.429 308.227 700.063 308.227Z" fill="#DBDCDD"/>
<path d="M700.412 307.866H481.982C475.605 307.866 470.444 313.031 470.444 319.412V470.793C470.444 477.175 475.605 482.339 481.982 482.339H700.412C706.789 482.339 711.95 477.175 711.95 470.793V319.412C711.95 313.042 706.789 307.866 700.412 307.866Z" fill="#DADBDC"/>
<path d="M700.773 307.517H482.343C475.966 307.517 470.805 312.681 470.805 319.063V470.444C470.805 476.826 475.966 481.99 482.343 481.99H700.773C707.15 481.99 712.311 476.826 712.311 470.444V319.063C712.311 312.681 707.15 307.517 700.773 307.517Z" fill="#D9DADB"/>
<path d="M701.133 307.156H482.692C476.315 307.156 471.154 312.32 471.154 318.702V470.083C471.154 476.465 476.315 481.629 482.692 481.629H701.122C707.499 481.629 712.66 476.465 712.66 470.083V318.702C712.671 312.331 707.499 307.156 701.133 307.156Z" fill="#D8DADA"/>
<path d="M701.482 306.806H483.053C476.675 306.806 471.515 311.97 471.515 318.352V469.733C471.515 476.115 476.675 481.279 483.053 481.279H701.482C707.86 481.279 713.02 476.115 713.02 469.733V318.352C713.02 311.97 707.86 306.806 701.482 306.806Z" fill="#D7D9D9"/>
<path d="M701.843 306.446H483.414C477.036 306.446 471.876 311.61 471.876 317.991V469.373C471.876 475.754 477.036 480.918 483.414 480.918H701.843C708.221 480.918 713.381 475.754 713.381 469.373V317.991C713.381 311.61 708.209 306.446 701.843 306.446Z" fill="#D6D8D9"/>
<path d="M702.192 306.085H483.763C477.385 306.085 472.225 311.249 472.225 317.631V469.012C472.225 475.394 477.385 480.558 483.763 480.558H702.192C708.57 480.558 713.73 475.394 713.73 469.012V317.631C713.73 311.26 708.57 306.085 702.192 306.085Z" fill="#D5D7D8"/>
<path d="M702.553 305.735H484.124C477.746 305.735 472.586 310.9 472.586 317.281V468.662C472.586 475.044 477.746 480.208 484.124 480.208H702.553C708.931 480.208 714.091 475.044 714.091 468.662V317.281C714.091 310.9 708.931 305.735 702.553 305.735Z" fill="#D4D6D7"/>
<path d="M702.913 305.375H484.472C478.095 305.375 472.934 310.539 472.934 316.92V468.302C472.934 474.683 478.095 479.847 484.472 479.847H702.902C709.279 479.847 714.44 474.683 714.44 468.302V316.92C714.451 310.55 709.279 305.375 702.913 305.375Z" fill="#D3D5D6"/>
<path d="M703.262 305.025H484.833C478.455 305.025 473.295 310.189 473.295 316.571V467.952C473.295 474.334 478.455 479.498 484.833 479.498H703.262C709.64 479.498 714.8 474.334 714.8 467.952V316.571C714.8 310.189 709.64 305.025 703.262 305.025Z" fill="#D2D4D5"/>
<path d="M703.623 304.664H485.194C478.816 304.664 473.656 309.828 473.656 316.21V467.591C473.656 473.973 478.816 479.137 485.194 479.137H703.623C710.001 479.137 715.161 473.973 715.161 467.591V316.21C715.161 309.828 709.99 304.664 703.623 304.664Z" fill="#D1D3D4"/>
<path d="M703.623 304.664H485.193C478.816 304.664 473.656 309.828 473.656 316.21V467.591C473.656 473.973 478.816 479.137 485.193 479.137H703.623C710 479.137 715.161 473.973 715.161 467.591V316.21C715.161 309.828 709.989 304.664 703.623 304.664Z" fill="white"/>
<path d="M695.195 356.846H493.621V459.191H695.195V356.846Z" fill="#FF3A67"/>
<path d="M517.734 328.737C517.734 335.4 512.337 340.801 505.678 340.801C499.019 340.801 493.621 335.4 493.621 328.737C493.621 322.073 499.019 316.672 505.678 316.672C512.337 316.672 517.734 322.073 517.734 328.737Z" fill="#F8A72D"/>
<path d="M615.861 317.676H531.176V325.907H615.861V317.676Z" fill="#29A87C"/>
<path d="M671.275 336.212H531.176V339.787H671.275V336.212Z" fill="#F8A72D"/>
<path d="M613.259 408.013L581.27 392.273V423.753L613.259 408.013Z" fill="white"/>
<path d="M223.576 142.493H215.565V149.946H223.576V142.493Z" fill="#64C2E7"/>
<path d="M227.947 136.596H211.204V142.504H227.947V136.596Z" fill="#64C2E7"/>
<path d="M219.576 201.575C234.405 201.575 246.426 189.546 246.426 174.706C246.426 159.867 234.405 147.837 219.576 147.837C204.747 147.837 192.726 159.867 192.726 174.706C192.726 189.546 204.747 201.575 219.576 201.575Z" fill="#29A87C"/>
<path d="M219.576 197.572C232.196 197.572 242.426 187.335 242.426 174.706C242.426 162.077 232.196 151.84 219.576 151.84C206.956 151.84 196.726 162.077 196.726 174.706C196.726 187.335 206.956 197.572 219.576 197.572Z" fill="white"/>
<path d="M238.527 179.735C238.482 179.735 238.426 179.735 238.37 179.712C237.998 179.622 237.761 179.261 237.851 178.889C238.167 177.525 238.325 176.116 238.325 174.695C238.325 165.821 232.026 158.086 223.35 156.305C222.978 156.226 222.731 155.865 222.809 155.493C222.888 155.121 223.249 154.873 223.621 154.952C232.939 156.857 239.699 165.156 239.699 174.695C239.699 176.217 239.53 177.728 239.192 179.194C239.136 179.521 238.843 179.735 238.527 179.735Z" fill="#152F50"/>
<path d="M219.575 177.435C221.081 177.435 222.302 176.213 222.302 174.706C222.302 173.199 221.081 171.978 219.575 171.978C218.07 171.978 216.849 173.199 216.849 174.706C216.849 176.213 218.07 177.435 219.575 177.435Z" fill="#152F50"/>
<path d="M219.576 175.394C219.193 175.394 218.889 175.089 218.889 174.706V153.768C218.889 153.385 219.193 153.08 219.576 153.08C219.959 153.08 220.263 153.385 220.263 153.768V174.695C220.263 175.078 219.959 175.394 219.576 175.394Z" fill="#152F50"/>
<path d="M234.156 182.001C234.065 182.001 233.964 181.979 233.874 181.933L219.283 175.326C218.933 175.168 218.776 174.762 218.933 174.413C219.091 174.063 219.497 173.906 219.846 174.063L234.437 180.671C234.787 180.828 234.944 181.234 234.787 181.584C234.674 181.855 234.415 182.001 234.156 182.001Z" fill="#152F50"/>
<path d="M220.522 194.641C220.522 195.171 220.094 195.599 219.565 195.599C219.035 195.599 218.607 195.171 218.607 194.641C218.607 194.111 219.035 193.682 219.565 193.682C220.094 193.682 220.522 194.111 220.522 194.641Z" fill="#29A87C"/>
<path d="M205.48 189.758C206.009 189.758 206.438 189.329 206.438 188.8C206.438 188.271 206.009 187.842 205.48 187.842C204.951 187.842 204.522 188.271 204.522 188.8C204.522 189.329 204.951 189.758 205.48 189.758Z" fill="#29A87C"/>
<path d="M199.644 175.664C200.173 175.664 200.601 175.235 200.601 174.706C200.601 174.177 200.173 173.748 199.644 173.748C199.115 173.748 198.686 174.177 198.686 174.706C198.686 175.235 199.115 175.664 199.644 175.664Z" fill="#29A87C"/>
<path d="M205.48 161.559C206.009 161.559 206.438 161.13 206.438 160.601C206.438 160.072 206.009 159.643 205.48 159.643C204.951 159.643 204.522 160.072 204.522 160.601C204.522 161.13 204.951 161.559 205.48 161.559Z" fill="#29A87C"/>
<path d="M233.66 189.758C234.189 189.758 234.618 189.329 234.618 188.8C234.618 188.271 234.189 187.842 233.66 187.842C233.131 187.842 232.702 188.271 232.702 188.8C232.702 189.329 233.131 189.758 233.66 189.758Z" fill="#29A87C"/>
<path d="M206.438 143.643H139.96L196.083 150.464C199.092 147.826 202.607 145.864 206.427 144.737V143.643H206.438Z" fill="#FF3A67"/>
<path d="M155.284 157.726L187.036 164.412C187.813 162.044 188.816 159.789 190.056 157.726H155.284Z" fill="#FF3A67"/>
<path d="M185.469 171.797H166.63L185.492 178.269C185.39 177.198 185.334 176.104 185.334 174.999C185.323 173.928 185.379 172.857 185.469 171.797Z" fill="#FF3A67"/>
<path d="M175.982 185.88L190.055 192.307C188.861 190.311 187.881 188.157 187.115 185.88H175.982Z" fill="#FF3A67"/>
<path d="M123.127 397.425H114.834V419.288H123.127V397.425Z" fill="#FF3A67"/>
<path d="M156.219 400.21C155.678 398.756 154.281 397.797 152.737 397.797L136.771 397.189C138.991 394.798 139.183 388.507 139.149 385.507C139.138 384.594 138.394 383.861 137.481 383.861C136.828 383.861 136.231 384.245 135.96 384.842C135.386 386.15 134.112 388.54 131.78 390.717C129.076 393.242 126.574 397.425 126.574 397.425V419.288H129.876H130.383H146.597C149.019 419.288 150.946 417.292 150.889 414.879C150.878 414.316 150.867 413.718 150.867 413.12C150.867 409.918 157.267 407.178 157.267 404.664C157.278 403.379 156.737 401.631 156.219 400.21Z" fill="#FF3A67"/>
<path d="M205.356 254.501H153.289V356.711H232.139V281.302L205.356 254.501Z" fill="#F8A72D"/>
<path d="M205.356 254.501L232.139 281.302H205.356V254.501Z" fill="#F7941D"/>
<path d="M192.725 269.52H164.512V274.65H192.725V269.52Z" fill="white"/>
<path d="M220.646 292.803H164.512V297.933H220.646V292.803Z" fill="white"/>
<path d="M220.646 306.457H164.512V311.587H220.646V306.457Z" fill="white"/>
<path d="M220.646 320.123H164.512V325.253H220.646V320.123Z" fill="white"/>
<path d="M220.646 333.777H164.512V338.907H220.646V333.777Z" fill="white"/>
<path d="M377.027 588.597C377.027 588.597 373.32 592.532 372.475 595.644C371.708 598.643 371.291 599.838 370.007 599.511C368.722 599.184 356.79 593.896 353.388 591.765C349.985 589.634 361.466 590.017 366.199 590.536C370.931 591.043 374.007 586.184 374.007 586.184L377.027 588.597Z" fill="#F8E4D2"/>
<path d="M372.474 595.644C372.621 595.114 372.846 594.561 373.128 593.997C372.271 593.693 371.325 593.039 370.007 593.592C367.415 594.708 361.827 591.551 359.945 590.141C355.415 590.04 351.123 590.344 353.387 591.754C356.79 593.885 368.722 599.173 370.007 599.5C371.291 599.838 371.708 598.643 372.474 595.644Z" fill="#006838"/>
<path d="M472.405 540.733C472.405 540.733 472.089 559.788 438.907 558.278C418.445 557.849 408.203 553.925 408.203 553.925C408.203 553.925 389.353 580.185 375.742 590.592L371.494 588.202C371.494 588.202 394.896 543.879 401.352 540.136C406.31 537.475 450.67 536.28 450.67 536.28L472.405 540.733Z" fill="#BB4738"/>
<path opacity="0.5" d="M394.198 548.885C395.302 554.85 396.631 563.114 396.226 569.406C403.076 561.085 408.214 553.925 408.214 553.925C408.214 553.925 409.927 554.579 413.307 555.368C413.837 551.467 414.907 543.744 415.268 542.661C415.516 541.906 415.899 539.876 415.842 537.982C408.766 538.546 402.975 539.256 401.364 540.124C399.797 541.038 397.206 544.375 394.198 548.885Z" fill="#BB4738"/>
<path d="M398.119 592.013C398.119 592.013 396.643 597.222 397.33 600.368C398.029 603.378 398.209 604.641 396.913 604.934C395.617 605.239 382.604 606.05 378.592 605.735C374.581 605.419 384.958 600.458 389.398 598.733C393.837 596.996 394.322 591.269 394.322 591.269L398.119 592.013Z" fill="#F8E4D2"/>
<path d="M475.853 541.444C475.853 541.444 481.025 553.914 472.09 560.273C463.155 566.632 415.865 554.478 415.865 554.478C415.865 554.478 415.505 574.931 397.86 594.933L392.891 593.4C392.891 593.4 403.122 549.302 409.465 540.124C420.519 536.122 450.682 536.268 450.682 536.268L475.853 541.444Z" fill="#BB4738"/>
<path d="M397.342 600.368C397.229 599.827 397.173 599.229 397.161 598.609C396.271 598.733 395.122 598.586 394.198 599.691C392.407 601.879 385.995 601.653 383.674 601.27C379.607 603.266 375.945 605.521 378.593 605.724C382.604 606.039 395.618 605.228 396.914 604.923C398.221 604.63 398.04 603.378 397.342 600.368Z" fill="#006838"/>
<path opacity="0.5" d="M472.089 560.273C481.024 553.914 475.853 541.444 475.853 541.444L450.681 536.268C450.681 536.268 448 536.257 443.966 536.347C444.191 537.464 457.453 545.976 458.557 551.129C459.684 556.383 419.673 551.648 415.865 554.489C415.865 554.478 463.143 566.632 472.089 560.273Z" fill="#BB4738"/>
<path d="M414.265 516.604C414.265 516.604 412.383 517.145 411.29 516.751C410.186 516.367 408.203 514.98 406.378 515.42C404.553 515.86 402.457 519.4 401.634 520.505C400.812 521.61 404.226 520.505 405.938 519.344C407.651 518.183 408.868 521.001 410.795 520.719C412.721 520.438 415.268 519.863 415.268 519.863L414.265 516.604Z" fill="#FFBBA6"/>
<path d="M459.087 475.855C454.05 474.66 449.036 477.941 448.157 483.049C447.752 485.417 447.301 487.785 446.816 490.073C446.242 492.768 445.611 495.452 444.856 497.887C444.495 499.139 444.078 500.289 443.695 501.281C443.695 501.281 443.425 501.946 443.402 501.969C442.817 503.39 442.028 503.773 440.676 504.494C439.481 505.126 438.253 505.757 436.98 506.355C434.445 507.561 431.82 508.723 429.172 509.828C423.876 512.06 418.434 514.169 413.014 516.153L414.175 520.968C420.023 520.167 425.814 519.265 431.651 518.194C434.569 517.664 437.487 517.078 440.439 516.39C441.915 516.052 443.402 515.668 444.924 515.251C445.69 515.014 446.433 514.823 447.233 514.552L448.428 514.135L449.025 513.921C449.307 513.785 449.757 513.526 450.118 513.3C450.816 512.861 451.718 512.229 452.146 511.801L453.374 510.515L453.971 509.85L454.399 509.275L455.256 508.114C456.315 506.592 457.216 505.137 457.994 503.717C459.616 500.853 460.957 498.056 462.23 495.249C463.323 492.836 464.348 490.446 465.329 488.044C467.424 482.925 464.472 477.13 459.087 475.855Z" fill="#F8A72D"/>
<path opacity="0.5" d="M453.374 510.177L453.972 509.422L454.4 508.768L455.256 507.437C456.315 505.69 457.216 504.021 457.994 502.397C459.616 499.105 460.957 495.891 462.23 492.667C463.323 489.893 464.349 487.153 465.329 484.402C465.532 483.85 465.678 483.275 465.78 482.711C465.07 479.464 462.602 476.69 459.076 475.855C454.039 474.66 449.025 477.941 448.146 483.049C447.741 485.417 447.29 487.785 446.805 490.073C446.231 492.768 445.6 495.452 444.845 497.887C444.484 499.139 444.067 500.289 443.684 501.281C443.684 501.281 443.414 501.946 443.391 501.98C442.806 503.401 442.017 503.784 440.665 504.506C440.653 504.506 440.653 504.517 440.642 504.517C441.465 507.933 442.422 512.579 442.501 515.871C443.301 515.668 444.101 515.488 444.913 515.251C445.679 515.014 446.422 514.823 447.222 514.552L448.417 514.135L449.014 513.921C449.296 513.785 449.746 513.526 450.107 513.3C450.355 513.143 450.625 512.962 450.907 512.77C451.391 512.376 451.865 511.97 452.135 511.654L453.374 510.177Z" fill="#F8A72D"/>
<path d="M425.352 528.421C425.352 528.421 423.47 528.962 422.377 528.567C421.273 528.184 419.29 526.797 417.465 527.237C415.639 527.677 413.544 531.217 412.721 532.322C411.887 533.427 415.313 532.322 417.025 531.161C418.738 529.999 419.955 532.818 421.882 532.536C423.808 532.254 426.355 531.679 426.355 531.679L425.352 528.421Z" fill="#FFBBA6"/>
<path d="M496.168 582.677V563.306H499.39V560.363H430.907C425.341 560.363 420.823 564.885 420.823 570.455V575.551C420.823 581.121 425.341 585.642 430.907 585.642H499.39V582.7H496.168V582.677Z" fill="#29A87C"/>
<path d="M474.32 514.631C474.906 506.333 475.83 497.854 474.805 489.566C474.016 483.196 470.365 476.408 463.684 474.818C460.078 473.961 457.228 474.863 454.512 476.453C453.115 477.276 451.752 478.28 450.343 479.328C445.307 483.072 438.614 490.784 440.225 498.147C441.081 502.071 442.422 504.156 444.766 507.111C447.369 510.392 448.405 514.191 448.541 518.341C448.586 519.57 446.388 532.739 444.631 535.129C444.405 535.434 444.496 535.862 444.8 536.077C450.771 540.418 464.563 550.182 478.647 544.713C479.199 539.876 473.396 527.812 474.32 514.631Z" fill="#F8A72D"/>
<path d="M432.293 563.306C427.91 563.306 424.361 566.858 424.361 571.244V574.739C424.361 579.125 427.91 582.677 432.293 582.677H497.858V563.306H432.293Z" fill="#FFFDEB"/>
<path d="M436.304 604.844V588.574H433.082V585.631H501.565C507.131 585.631 511.65 590.153 511.65 595.723V597.707C511.65 603.277 507.131 607.798 501.565 607.798H433.082V604.856H436.304V604.844Z" fill="#152F50"/>
<path d="M500.179 588.574C504.562 588.574 508.111 592.126 508.111 596.512V596.907C508.111 601.293 504.562 604.844 500.179 604.844H434.614V588.574H500.179Z" fill="#FEE0CF"/>
<path d="M450.49 447.127C445.577 447.284 440.349 449.427 440.225 453.925C440.045 459.879 441.994 461.559 441.994 463.521C441.994 465.483 441.059 467.388 441.149 467.952C441.239 468.527 444.056 467.692 444.428 468.268C444.8 468.843 447.786 472.845 450.4 472.62C453.802 472.327 457.137 468.888 458.805 466.362C461.982 461.559 463.019 451.693 457.025 448.378C455.402 447.476 452.991 447.048 450.49 447.127Z" fill="#FFBBA6"/>
<path d="M461.701 475.596C456.935 470.196 457.363 463.656 457.363 463.656C457.363 463.656 451.842 463.836 453.025 466.869C454.208 469.902 453.217 477.062 453.217 477.062C453.217 477.062 446.073 482.903 450.197 484.03C453.814 485.011 459.436 480.557 461.78 477.603C462.253 476.994 462.208 476.16 461.701 475.596Z" fill="#FFBBA6"/>
<path d="M437.905 456.913C437.905 456.913 438.175 458.571 446.918 458.187C449.848 457.657 449.521 462.021 450.4 465.065C451.065 467.365 452.135 463.769 454.242 460.815C456.349 457.86 458.366 463.498 455.718 465.178C453.07 466.858 457.78 473.984 449.848 477.13C453.273 478.686 460.958 476.442 466.557 472.146C472.157 467.85 464.845 450.205 460.744 446.1C456.631 441.996 436.305 440.226 437.905 456.913Z" fill="#0B5F99"/>
<path d="M437.014 535.49H397.003V539.459H437.014V535.49Z" fill="#647FA0"/>
<path d="M374.987 513.244H400.395L414.66 539.47H389.263L374.987 513.244Z" fill="#7991B4"/>
<path d="M395.742 526.493C396.429 528.263 396.023 529.706 394.818 529.706C393.612 529.706 392.08 528.274 391.392 526.493C390.705 524.723 391.111 523.279 392.316 523.279C393.522 523.279 395.054 524.723 395.742 526.493Z" fill="#A2C4ED"/>
<path opacity="0.5" d="M389.263 539.47H414.659L411.167 533.055C398.31 535.073 387.877 529.83 381.567 525.343L389.263 539.47Z" fill="#7991B4"/>
<path d="M449.588 572.744H455.357L452.653 575.179L449.588 572.744Z" fill="#F8A72D"/>
<path d="M472.371 592.487H478.14L475.436 594.933L472.371 592.487Z" fill="#FFC9AE"/>
<path d="M478.58 575.179H487.639L483.391 579.013L478.58 575.179Z" fill="#F8A72D"/>
<path d="M444.18 594.786H453.239L448.991 598.62L444.18 594.786Z" fill="#FFC9AE"/>
<path d="M432.18 566.689H439.673L436.158 569.857L432.18 566.689Z" fill="#FFE7C4"/>
<path d="M491.233 599.658H498.726L495.21 602.826L491.233 599.658Z" fill="#FFC9AE"/>
<path opacity="0.5" d="M454.411 488.089C454.411 488.089 455.301 501.608 456.507 508.193C457.453 513.346 453.104 517.157 448.428 519.434C448.214 521.126 447.673 524.362 446.997 527.496C454.456 526.008 468.563 523.042 468.585 521.96C468.619 520.494 470.872 505.938 469.836 502.826C468.799 499.703 455.943 487.92 454.411 488.089Z" fill="#F8A72D"/>
<path opacity="0.5" d="M474.32 514.631C474.343 514.338 474.365 514.045 474.388 513.74C472.405 513.368 470.399 513.086 470.118 513.346C469.532 513.876 455.425 529.841 450.907 531.961C450.907 531.961 467.932 528.68 470.118 529.977C472.134 531.172 475.808 539.752 474.782 545.807C476.067 545.548 477.363 545.209 478.658 544.713C479.199 539.876 473.396 527.812 474.32 514.631Z" fill="#F8A72D"/>
<path d="M473.531 500.109C473.024 496.027 472.416 492.047 471.717 488.078C470.805 482.914 465.554 479.723 460.54 481.223C455.74 482.655 453.137 487.807 454.76 492.554C455.966 496.095 457.104 499.658 458.106 503.176C459.042 506.4 459.842 509.636 460.382 512.658C460.54 513.447 460.63 514.146 460.709 514.834C460.833 515.59 460.833 516.142 460.878 516.706L460.912 517.134C460.901 517.191 460.901 517.247 460.901 517.315L460.923 517.495C460.349 517.924 459.504 518.42 458.613 518.848C457.284 519.48 455.785 520.066 454.253 520.596C451.166 521.667 447.876 522.558 444.54 523.358C437.87 524.948 430.963 526.211 424.124 527.203L424.462 533.089C431.651 533.168 438.738 532.987 445.971 532.424C449.588 532.13 453.216 531.736 456.935 531.07C458.805 530.721 460.687 530.326 462.658 529.751C464.641 529.12 466.681 528.466 469.115 526.842C470.354 525.839 471.796 524.88 472.946 522.287C473.272 521.599 473.238 521.464 473.385 521.036L473.689 519.942L473.96 518.826L474.084 517.946C474.241 516.762 474.376 515.556 474.388 514.552C474.433 513.492 474.467 512.433 474.422 511.463C474.331 507.494 473.982 503.784 473.531 500.109Z" fill="#F8A72D"/>
<path opacity="0.5" d="M458.557 456.023C457.712 452.663 455.244 452.663 450.005 455.527C446.05 457.691 440.461 455.741 437.836 454.568C437.814 455.312 437.825 456.079 437.904 456.902C437.904 456.902 438.174 458.56 446.918 458.176C449.847 457.646 449.52 462.01 450.399 465.054C451.064 467.354 452.134 463.758 454.242 460.803C456.349 457.849 458.365 463.487 455.718 465.167C453.07 466.847 457.779 473.973 449.847 477.119C453.273 478.675 460.957 476.431 466.557 472.135C469.047 470.23 468.979 465.697 467.785 460.882C463.83 464.987 459.368 459.281 458.557 456.023Z" fill="#0B5F99"/>
<path opacity="0.5" d="M424.361 571.244V574.739C424.361 577.423 425.702 579.779 427.73 581.211C424.924 572.958 428.203 569.395 432.18 569.395C435.797 569.395 488.213 569.395 497.858 569.395V563.295H432.293C427.91 563.306 424.361 566.858 424.361 571.244Z" fill="#F8A72D"/>
<path opacity="0.5" d="M500.179 588.574H434.614V592.487C444.123 592.487 495.03 592.487 498.725 592.487C502.117 592.487 506.68 596.23 507.029 600.83C507.694 599.669 508.111 598.339 508.111 596.895V596.501C508.111 592.126 504.55 588.574 500.179 588.574Z" fill="#FEE0CF"/>
<path d="M507.571 189.792V189.048C507.571 185.993 503.808 184.561 501.768 186.838L488.529 201.665C488.101 202.048 487.594 202.387 487.03 202.623C486.861 202.725 486.309 202.86 485.859 202.996L484.461 203.39L469.927 208.002C468.62 208.419 467.222 208.532 465.87 208.272C465.115 208.137 464.338 207.934 463.707 207.663C461.859 206.874 461.07 206.085 459.752 206.434C458.434 206.784 453.262 209.152 452.823 211.441C452.383 213.73 457.915 210.144 459.234 210.268C460.552 210.392 461.161 212.444 462.918 212.207C464.676 211.971 479.955 210.268 479.955 210.268L485.735 209.637L487.177 209.479C487.661 209.422 488.078 209.4 488.833 209.253C490.14 208.994 491.413 208.509 492.597 207.844C493.182 207.506 493.757 207.122 494.287 206.694L495.458 205.781L497.757 203.999L502.354 200.436C505.227 198.215 507.571 193.423 507.571 189.792Z" fill="#A56551"/>
<path opacity="0.5" d="M504.145 187.447C503.615 187.052 503.029 186.658 502.455 186.274C502.218 186.432 501.982 186.601 501.779 186.827L493.114 196.524C493.306 199.354 493.632 203.526 493.047 204.529C492.213 205.95 487.492 208.002 484.089 209.817L485.734 209.637L487.176 209.479C487.661 209.422 488.078 209.4 488.833 209.253C490.14 208.994 491.413 208.509 492.596 207.844C493.182 207.506 493.756 207.122 494.286 206.694L495.458 205.781L497.756 203.999L502.353 200.436C503.976 199.185 505.407 197.099 506.365 194.889C505.97 191.765 505.294 188.293 504.145 187.447Z" fill="#874F3D"/>
<path d="M482.129 164.175C482.129 164.175 492.585 157.072 501.464 163.375C509.306 168.944 514.478 160.736 519.999 162.315C525.52 163.893 524.382 172.248 530.049 175.371C533.587 177.322 537.328 178.596 541.418 178.269C545.384 177.953 549.136 176.882 551.885 180.569C554.207 183.692 555.175 188.022 555.164 191.867C555.153 197.065 551.592 200.357 546.95 202.049C541.136 204.168 534.77 204.788 530.049 200.109C524.956 195.058 526.139 192.386 519.097 190.525C512.055 188.665 500.799 198.328 492.596 188.969C487.458 184.437 490.794 173.5 488.281 170.613C485.768 167.727 480.247 167.896 482.129 164.175Z" fill="#BE1E2D"/>
<path opacity="0.5" d="M551.874 180.558C549.136 176.871 545.384 177.942 541.407 178.258C540.325 178.348 539.255 178.314 538.218 178.19C538.522 180.637 538.094 183.151 535.784 184.843C530.601 188.642 522.365 177.965 519.458 174.864C516.562 171.763 511.424 171.628 505.836 177.773C501.701 182.306 494.422 185.373 490.884 186.669C491.312 187.526 491.853 188.304 492.585 188.947C500.788 198.305 512.044 188.642 519.086 190.503C526.128 192.363 524.945 195.035 530.038 200.087C534.748 204.766 541.114 204.135 546.939 202.026C551.57 200.346 555.142 197.042 555.153 191.845C555.164 188 554.195 183.681 551.874 180.558Z" fill="#BE1E2D"/>
<path d="M619.478 210.223C619.478 210.223 623.039 209.287 624.267 207.878C625.484 206.468 626.701 205.341 627.546 206.468C628.391 207.596 633.461 214.632 634.858 215.387C636.267 216.142 638.047 218.443 637.202 219.356C636.357 220.269 631.85 218.296 629.135 215.951C626.419 213.605 620.132 213.696 620.132 213.696L619.478 210.223Z" fill="#C58C85"/>
<path d="M601 177.018C601 177.018 602.803 173.804 602.645 171.944C602.487 170.083 602.521 168.426 603.918 168.606C605.315 168.787 613.901 170.038 615.411 169.553C616.932 169.069 619.828 169.384 619.895 170.636C619.963 171.876 615.411 173.748 611.828 174.064C608.245 174.391 603.941 178.968 603.941 178.968L601 177.018Z" fill="#C58C85"/>
<path d="M536.933 206.491C536.933 206.491 546.77 195.374 584.358 204.36C584.831 194.494 600.898 175.755 600.898 175.755L606.081 177.48C606.081 177.48 591.175 211.035 587.93 216.458C582.961 217.36 557.192 221.025 537.812 218.262C534.804 214.406 536.933 206.491 536.933 206.491Z" fill="#00998A"/>
<path d="M620.56 209.208L613.732 209.479C613.732 209.479 602.814 207.979 598.07 208.34C593.338 208.701 585.766 210.573 585.766 210.573C585.766 210.573 565.564 200.786 555.626 198.982C545.688 197.178 538.252 201.44 538.252 201.44C536.302 206.638 535.649 213.966 537.812 218.262C544.945 220.98 577.992 219.164 585.124 219.164C592.256 219.164 621.63 215.094 621.63 215.094L620.56 209.208Z" fill="#29A87C"/>
<path opacity="0.5" d="M607.185 216.988C607.14 216.988 578.409 217.575 571.152 216.988C563.896 216.402 543.919 214.677 543.682 210.573C543.502 207.517 541.801 202.579 540.944 200.267C539.243 200.887 538.274 201.44 538.274 201.44C536.325 206.638 535.671 213.966 537.835 218.262C544.967 220.98 578.014 219.164 585.146 219.164C588.865 219.164 598.667 218.048 607.185 216.988Z" fill="#29A87C"/>
<path d="M503.638 179.667C503.638 179.667 498.207 182.802 497.79 186.985C497.374 191.168 492.562 204.349 497.79 206.018C503.018 207.686 506.151 203.717 510.331 208.103C514.511 212.501 522.872 216.684 538.961 219.187C540.629 213.752 541.249 209.152 538.961 200.154C535.615 198.689 531.232 199.106 523.289 191.788C515.334 184.482 509.486 175.901 503.638 179.667Z" fill="#FF3A67"/>
<path d="M484.709 166.148C481.385 168.031 478.613 171.459 480.269 174.774C482.455 179.16 484.45 179.679 485.216 181.111C485.982 182.543 486.072 184.256 486.354 184.628C486.635 185.012 488.258 183.388 488.731 183.681C489.204 183.963 492.821 185.801 494.534 184.696C496.765 183.253 497.723 179.566 497.892 177.13C498.218 172.496 495.097 164.964 489.678 164.716C488.235 164.638 486.399 165.201 484.709 166.148Z" fill="#A56551"/>
<path d="M503.458 181.505C498.41 180.152 495.458 175.913 495.458 175.913C495.458 175.913 492.235 178.179 494.128 179.521C496.021 180.863 498.23 185.519 498.23 185.519C498.23 185.519 495.999 194.291 498.894 193.344C501.452 192.51 504.032 185.249 504.246 182.588C504.291 182.08 503.953 181.629 503.458 181.505Z" fill="#A56551"/>
<path d="M477.892 176.206C477.892 176.206 481.306 178.754 486.208 174.875C487.391 173.533 489.768 176.262 490.658 178.979C491.548 181.697 491.402 176.544 491.548 174.514C491.695 172.485 496.45 176.217 494.14 179.554C495.244 180.58 496.889 181.46 499.266 178.979C501.644 176.499 499.965 171.29 497.914 167.58C495.852 163.859 491.988 159.699 485.61 162.382C479.233 165.054 474.028 170.106 477.892 176.206Z" fill="#BE1E2D"/>
<path d="M476.968 215.444H445.363V218.499H476.968V215.444Z" fill="#5FC8D7"/>
<path d="M434.366 187.244H437.983L448.867 218.499H445.251L434.366 187.244Z" fill="#5FC8D7"/>
<path opacity="0.5" d="M538.95 219.198C539.345 217.924 539.672 216.684 539.931 215.432C534.139 214.846 518.771 210.099 517.903 202.872C517.486 190.367 511.481 185.722 511.481 185.722L509.159 203.774C509.159 203.774 510.388 206.502 511.785 209.479C516.348 213.358 524.539 216.954 538.95 219.198Z" fill="#FF3A67"/>
<path d="M512.641 187.526C512.303 186.895 511.92 186.286 511.481 185.722C509.802 183.546 506.061 183.512 504.822 185.801C503.188 188.811 503.447 193.096 503.593 196.388C503.796 200.865 505.261 205.307 505.205 209.749C503.909 209.919 498.906 210.787 497.678 210.888C495.098 211.102 492.529 211.373 489.96 211.678C487.211 212.005 484.315 212.737 481.543 212.816C481.543 212.816 478.49 212.907 476.777 212.162C475.064 211.429 474.321 210.685 473.104 211.012C471.876 211.339 467.053 213.549 466.648 215.669C466.242 217.8 471.391 214.463 472.608 214.575C473.836 214.688 474.411 216.605 476.045 216.379C477.678 216.154 480.653 215.455 481.633 215.455C491.278 217.225 503.323 217.045 508.889 216.819C510.748 216.751 512.314 215.443 512.709 213.628C514.343 206.322 516.562 194.832 512.641 187.526Z" fill="#A56551"/>
<path opacity="0.5" d="M509.779 213.335C506.759 215.996 493.869 216.774 493.678 216.785C499.807 217.101 505.542 216.988 508.9 216.853C510.759 216.785 512.325 215.477 512.72 213.662C514.331 206.322 516.551 194.832 512.641 187.526C512.303 186.895 511.92 186.286 511.48 185.722C511.48 185.722 515.998 205.645 509.779 213.335Z" fill="#874F3D"/>
<path d="M320.554 160.342C315.957 152.009 296.239 152.776 296.239 152.776C296.239 152.776 276.532 152.02 271.924 160.342C268.622 166.306 275.034 186.895 276.69 199.647C280.904 200.47 291.428 201.71 296.239 201.71C301.05 201.71 311.574 200.47 315.788 199.647C317.444 186.883 323.855 166.306 320.554 160.342Z" fill="#FF3A67"/>
<path opacity="0.5" d="M277.434 169.474C275.552 170.196 273.885 173.522 272.499 177.649C273.896 185.079 275.879 193.321 276.69 199.647C280.904 200.47 291.428 201.71 296.239 201.71C301.05 201.71 311.574 200.47 315.788 199.647C316.261 195.949 317.14 191.596 318.064 187.143C316.081 185.643 311.371 183.771 300.318 181.573C280.284 177.593 277.434 169.474 277.434 169.474Z" fill="#FF3A67"/>
<path d="M318.402 157.816C318.402 157.816 326.21 164.525 329.647 182.193C332.633 197.482 320.52 198.914 315.788 200.538C312.532 201.135 315.168 192.893 315.168 192.893L321.478 188.676C321.478 188.676 316.464 174.661 314.977 169.474C313.501 164.299 318.402 157.816 318.402 157.816Z" fill="#FF3A67"/>
<path opacity="0.5" d="M323.135 188.033C321.659 187.83 319.473 182.982 319.473 182.971C320.599 186.207 321.49 188.676 321.49 188.676L315.18 192.893C315.18 192.893 314.684 194.438 314.391 196.14C321.264 194.483 323.281 190.266 323.946 190.052C324.611 189.826 324.611 188.248 323.135 188.033Z" fill="#FF3A67"/>
<path d="M274.065 157.816C274.065 157.816 266.257 164.525 262.82 182.193C259.834 197.482 271.947 198.914 276.679 200.538C279.935 201.135 277.299 192.893 277.299 192.893L270.989 188.676C270.989 188.676 276.003 174.661 277.49 169.474C278.955 164.299 274.065 157.816 274.065 157.816Z" fill="#FF3A67"/>
<path opacity="0.5" d="M269.333 188.033C270.809 187.83 272.994 182.982 272.994 182.971C271.868 186.207 270.978 188.676 270.978 188.676L277.287 192.893C277.287 192.893 277.783 194.438 278.076 196.14C271.203 194.483 269.186 190.266 268.521 190.052C267.845 189.826 267.845 188.248 269.333 188.033Z" fill="#FF3A67"/>
<path d="M327.788 254.963C327.788 254.963 328.261 259.496 333.275 261.333C338.3 263.171 340.959 262.585 341.41 264.603C341.861 266.61 341.41 266.745 341.41 266.745C341.41 266.745 328.25 267.332 324.824 266.745C321.399 266.159 323.529 255.56 323.529 255.56L327.788 254.963Z" fill="#333333"/>
<path d="M265.209 254.963C265.209 254.963 264.736 259.496 259.722 261.333C254.696 263.171 252.037 262.585 251.586 264.603C251.136 266.621 251.586 266.745 251.586 266.745C251.586 266.745 264.747 267.332 268.172 266.745C271.597 266.159 269.468 255.56 269.468 255.56L265.209 254.963Z" fill="#333333"/>
<path d="M330.638 213.414C330.402 208.487 327.258 204.18 322.65 202.443C317.895 200.65 313.343 199.647 313.343 199.647L296.25 197.854L279.158 199.647C279.158 199.647 274.606 200.65 269.851 202.443C265.243 204.191 262.099 208.487 261.862 213.414C261.276 225.557 262.583 247.77 263.012 256.621C265.626 258.549 270.437 257.906 270.437 257.906C270.437 257.906 274.786 241.286 274.978 226.313C276.285 216.898 282.008 213.267 296.25 213.267C310.492 213.267 316.216 216.909 317.523 226.313C317.715 241.286 322.064 257.906 322.064 257.906C322.064 257.906 326.875 258.549 329.489 256.621C329.917 247.781 331.224 225.557 330.638 213.414Z" fill="#747474"/>
<path d="M300.487 152.426C299.079 151.535 298.73 147.217 298.73 147.217C298.73 147.217 295.147 146.473 294.2 147.217C294.403 150.058 292.544 152.426 292.544 152.426C289.434 155.955 294.245 157.805 296.521 157.805C298.797 157.805 301.366 156.609 301.896 155.02C302.425 153.43 300.487 152.426 300.487 152.426Z" fill="#FFBBA6"/>
<path opacity="0.5" d="M294.2 147.228C294.267 148.187 294.098 149.066 293.85 149.844C295.552 150.712 297.918 151.727 300.002 151.93C299 150.498 298.74 147.228 298.74 147.228C298.74 147.228 295.146 146.484 294.2 147.228Z" fill="#FFBBA6"/>
<path d="M305.467 129.154C301.895 122.806 290.82 122.772 287.225 129.154C285.659 131.939 286.2 135.93 287.034 138.862C288.183 142.91 290.639 146.698 294.346 148.671C295.27 149.168 296.994 149.258 298.053 148.897C301.895 147.589 304.025 143.665 305.332 139.899C306.402 136.776 307.123 132.537 305.602 129.436C305.569 129.323 305.512 129.244 305.467 129.154Z" fill="#FFBBA6"/>
<path d="M305.062 138.513C305.062 138.513 307.101 136.077 308.363 137.543C309.625 139.009 306.91 143.034 305.479 143.124C304.059 143.214 303.8 140.982 305.062 138.513Z" fill="#FFBBA6"/>
<path d="M287.631 138.513C287.631 138.513 285.592 136.077 284.33 137.543C283.068 139.009 285.783 143.034 287.214 143.124C288.645 143.214 288.904 140.982 287.631 138.513Z" fill="#FFBBA6"/>
<path d="M289.276 132.007C289.276 132.007 302.042 138.05 307.833 135.367C311.506 133.473 313.073 125.783 311.619 124.385C310.166 122.987 309.05 123.325 307.27 123.55C305.49 123.776 304.036 121.656 303.033 120.427C302.031 119.198 302.256 120.089 300.25 121.092C298.053 122.186 295.507 121.228 293.197 121.6C288.825 122.299 286.234 125.681 285.141 129.718C284.611 131.702 284.476 133.788 284.882 135.807C285.028 136.528 288.07 142.82 288.42 142.391C290.2 140.159 290.222 137.238 289.276 132.007Z" fill="#594A42"/>
<path d="M303.529 133.675C303.529 133.675 302.053 140.632 304.261 142.414C305.918 139.572 307.011 136.81 307.011 134.284C307.011 131.759 303.529 133.675 303.529 133.675Z" fill="#594A42"/>
<path opacity="0.5" d="M298.695 141.5C298.301 140.677 297.355 139.054 296.791 138.118C296.622 137.836 296.194 137.881 296.104 138.208C295.687 139.595 294.966 142.29 295.586 142.425C296.408 142.594 299.27 142.696 298.695 141.5Z" fill="#FC957A"/>
<path opacity="0.5" d="M307.833 135.367C310.38 134.048 311.912 129.955 312.126 127.091C311.022 129.515 308.521 133.337 304.239 132.965C298.188 132.435 294.955 129.898 292.138 129.087C289.332 128.275 287.315 129.921 287.045 132.988C286.887 134.736 285.738 134.837 284.701 134.521C284.735 134.95 284.791 135.378 284.87 135.795C285.017 136.517 288.059 142.809 288.408 142.38C290.177 140.148 290.2 137.227 289.253 131.996C289.276 132.007 302.042 138.039 307.833 135.367Z" fill="#594A42"/>
<path opacity="0.5" d="M322.368 252.81C320.757 250.656 320.757 232.198 320.25 226.662C319.743 221.126 319.067 220.359 321.478 218.668C323.901 216.977 319.056 217.281 317.061 216.977C315.067 216.672 311.991 213.132 309.219 211.903C306.447 210.674 301.693 210.674 302.797 209.445C303.901 208.216 307.067 207.754 305.377 207.291C303.687 206.829 301.693 205.6 303.529 204.833C305.377 204.067 317.05 201.721 317.05 201.721C317.354 201.473 318.74 201.507 318.977 201.203C315.788 200.199 313.332 199.658 313.332 199.658L296.239 197.865L279.147 199.658C279.147 199.658 276.679 200.199 273.49 201.203C273.738 201.496 275.102 201.473 275.417 201.721C275.417 201.721 287.101 204.067 288.938 204.833C290.786 205.6 288.78 206.829 287.09 207.291C285.4 207.754 288.566 208.216 289.67 209.445C290.775 210.674 286.008 210.674 283.248 211.903C280.476 213.132 277.411 216.672 275.406 216.977C273.411 217.281 268.566 216.977 270.989 218.668C273.411 220.359 272.724 221.126 272.217 226.662C271.71 232.198 271.71 250.656 270.099 252.81C269.028 254.241 265.761 254.309 262.876 254.467C262.91 255.245 262.955 255.978 262.989 256.609C265.603 258.537 270.414 257.895 270.414 257.895C270.414 257.895 274.764 241.275 274.955 226.301C276.262 216.887 281.986 213.256 296.228 213.256C310.47 213.256 316.194 216.898 317.501 226.301C317.692 241.275 322.042 257.895 322.042 257.895C322.042 257.895 326.853 258.537 329.467 256.609C329.501 255.967 329.534 255.234 329.579 254.467C326.706 254.309 323.439 254.241 322.368 252.81Z" fill="#877F7D"/>
<path d="M316.273 201.71H276.206L272.228 178.382H320.25L316.273 201.71Z" fill="#DDC2BF"/>
<path d="M300.205 191.382C299.732 192.611 297.997 193.412 296.239 193.412C294.482 193.412 292.746 192.611 292.273 191.382C291.653 189.77 293.344 188.033 296.239 188.033C299.135 188.033 300.825 189.77 300.205 191.382Z" fill="#FCE2E0"/>
<path opacity="0.5" d="M276.206 201.71H316.273L316.678 199.308C295.845 199.545 280.194 188.293 272.803 181.753L276.206 201.71Z" fill="#DDC2BF"/>
<path d="M348.182 389.826H188.399C181.627 389.826 176.129 395.317 176.129 402.105V503.492C176.129 510.268 181.616 515.77 188.399 515.77H348.182C354.954 515.77 360.452 510.279 360.452 503.492V402.105C360.441 395.317 354.954 389.826 348.182 389.826Z" fill="white"/>
<path d="M348.182 389.826H188.399C181.627 389.826 176.129 395.317 176.129 402.105V419.232H360.441V402.105C360.441 395.317 354.954 389.826 348.182 389.826Z" fill="#29A87C"/>
<path d="M210.821 408.78C213.167 408.78 215.069 406.877 215.069 404.529C215.069 402.181 213.167 400.278 210.821 400.278C208.475 400.278 206.573 402.181 206.573 404.529C206.573 406.877 208.475 408.78 210.821 408.78Z" fill="#EF4065"/>
<path d="M196.759 404.529C196.759 406.874 194.855 408.78 192.512 408.78C190.168 408.78 188.264 406.874 188.264 404.529C188.264 402.184 190.168 400.278 192.512 400.278C194.855 400.267 196.759 402.173 196.759 404.529Z" fill="#F7941D"/>
<path d="M224.883 404.529C224.883 406.874 226.787 408.78 229.131 408.78C231.474 408.78 233.378 406.874 233.378 404.529C233.378 402.184 231.474 400.278 229.131 400.278C226.787 400.267 224.883 402.173 224.883 404.529Z" fill="#5FC8D7"/>
<path d="M200.714 437.024H189.808V487.515H200.714V437.024Z" fill="#0096D6"/>
<path d="M218.257 448.705H207.351V487.503H218.257V448.705Z" fill="#F8A72D"/>
<path d="M235.79 442.65H224.883V487.514H235.79V442.65Z" fill="#5FC8D7"/>
<path d="M253.334 458.21H242.427V488.146H253.334V458.21Z" fill="#29A87C"/>
<path d="M297.524 443.383C297.524 450.87 291.451 456.948 283.969 456.948C276.487 456.948 270.414 450.87 270.414 443.383C270.414 435.897 276.487 429.819 283.969 429.819C291.451 429.819 297.524 435.897 297.524 443.383Z" fill="#5FC8D7"/>
<path d="M345.162 441.061H309.298V445.729H345.162V441.061Z" fill="#F8A72D"/>
<path d="M345.163 461.762H273.434V466.43H345.163V461.762Z" fill="#877F7D"/>
<path d="M345.163 472.304H273.434V476.972H345.163V472.304Z" fill="#877F7D"/>
<path d="M345.163 482.847H273.434V487.515H345.163V482.847Z" fill="#877F7D"/>
<path d="M226.742 499.004H201.695V503.672H226.742V499.004Z" fill="#F8A72D"/>
<path d="M199.092 496.692H189.808V505.983H199.092V496.692Z" fill="#0096D6"/>
<path d="M272.724 499.004H247.677V503.672H272.724V499.004Z" fill="#F8A72D"/>
<path d="M245.074 496.692H235.79V505.983H245.074V496.692Z" fill="#5FC8D7"/>
<path d="M655.252 615.781C655.14 616.131 655.399 620.37 650.689 621.633C645.979 622.896 642.655 623.245 642.081 624.847C641.506 626.459 642.081 626.459 642.081 626.459C642.081 626.459 656.537 626.459 659.41 625.546C660.323 624.057 659.985 615.781 659.985 615.781H655.252Z" fill="#594A42"/>
<path d="M685.167 615.725C685.122 616.074 686.294 620.303 681.866 621.644C677.438 622.997 674.181 623.403 673.956 625.016C673.731 626.628 674.305 626.617 674.305 626.617C674.305 626.617 688.761 626.324 691.432 625.354C692.029 623.843 689.911 615.623 689.911 615.623L685.167 615.725Z" fill="#594A42"/>
<path d="M650.971 513.865C650.971 513.865 647.94 567.738 648.92 578.314C649.911 588.89 654.531 616.977 654.531 616.977H660.807L659.151 576.656C659.151 576.656 664.097 549.562 666.249 544.928C670.384 553.193 673.055 578.506 673.055 578.506L684.254 616.965H691.522C691.522 616.965 683.601 577.976 683.928 576.983C684.254 575.991 687.781 535.479 679.083 516.244C670.069 512.557 650.971 513.865 650.971 513.865Z" fill="#747474"/>
<path opacity="0.5" d="M650.407 524.689C654.61 526.527 665.832 531.172 672.3 531.397C678.925 531.623 683.241 544.003 684.886 552.302C684.671 540.699 683.488 527.406 679.872 518.115C673.089 518.702 661.382 519.773 659.162 520.449C656.018 521.408 652.458 515.387 651.635 515.928C651.466 516.041 651.174 516.176 650.836 516.379C650.734 518.273 650.576 521.159 650.407 524.689Z" fill="#333333"/>
<path d="M703.049 524.08C703.049 524.08 700.93 528.094 698.756 530.011C696.581 531.939 699.849 531.105 701.685 529.007C702.44 528.252 702.688 531.432 701.854 532.435C701.021 533.439 698.925 534.69 698.677 534.95C698.429 535.198 701.19 534.668 702.857 533.585C702.102 535.006 699.094 536.46 699.342 536.968C699.59 537.475 702.936 537.475 705.527 535.299C708.119 533.123 706.868 525.422 706.699 524.497C706.542 523.573 703.049 524.08 703.049 524.08Z" fill="#F9C4B7"/>
<path d="M645.055 433.968C645.055 433.968 650.509 432.818 653.066 432.367C655.624 431.916 651.613 431.364 649.179 430.856C649.348 429.379 653.438 425.241 654.869 423.855C656.3 422.468 653.28 423.584 651.455 425.219C650.261 426.369 649.72 426.741 649.72 426.741C649.72 426.741 652.526 421.16 652.221 420.145C651.917 419.13 646.565 422.039 645.134 423.426C643.703 424.813 642.329 431.195 642.329 431.195L645.055 433.968Z" fill="#F9C4B7"/>
<path d="M706.756 489.736C706.451 488.8 706.282 487.988 705.809 486.939C705.313 485.913 704.66 484.628 704.175 483.997C703.116 482.396 702.102 481.155 701.066 479.926C699.004 477.491 696.908 475.292 694.79 473.15C692.807 471.165 690.823 469.237 688.807 467.354C688.762 467.321 688.716 467.287 688.683 467.253C685.133 461.807 667.41 462.427 667.41 462.427C667.41 462.427 652.481 463.915 651.782 463.825C649.281 463.476 646.802 463.047 644.436 462.54C644.424 462.393 637.641 460.578 637.146 460.42C636.571 460.228 635.963 460.025 635.557 459.574C634.588 458.492 635.872 455.572 636.255 454.456C637.01 452.167 638.024 449.81 639.117 447.476C641.337 442.82 643.962 438.152 646.723 433.72L641.889 430.078C638.272 434.307 634.926 438.603 631.771 443.248C630.205 445.582 628.695 447.984 627.343 450.645C626.058 453.396 624.594 456 624.402 460.567C624.38 461.694 624.594 463.171 625.236 464.693C625.563 465.393 626.216 466.452 626.543 466.779L627.681 468.042C629.213 469.564 630.667 470.534 632.087 471.425C634.915 473.127 637.641 474.322 640.368 475.439C642.475 476.273 644.548 477.006 646.633 477.694C646.959 484.583 648.785 493.254 649.213 500.65C649.957 513.278 650.024 522.941 650.024 522.941C650.024 522.941 668.604 528.895 682.7 523.325C683.387 515.567 685.021 497.989 687.038 486.037C688.638 487.142 693.595 490.999 694.283 491.664C694.778 492.092 694.688 492.149 694.936 492.34C695.139 492.555 695.364 493.13 695.59 493.513C697.404 497.662 698.53 503.413 699.409 508.847C700.299 514.361 700.953 520.032 701.437 525.636L707.477 525.681C707.95 519.841 708.254 514.079 708.299 508.193C708.288 502.251 708.344 496.523 706.756 489.736ZM635.309 460.048C635.275 459.969 635.286 459.8 635.275 459.676C635.298 459.732 635.343 459.789 635.343 459.823C635.467 460.116 635.343 460.274 635.309 460.048Z" fill="#64C2E7"/>
<path d="M671.41 461.953C671.004 459.676 671.072 456.259 671.072 456.259L666.159 456.992C666.159 456.992 666.249 461.446 663.613 463.363C662.824 466.903 666.722 467.85 670.508 464.626C671.286 463.972 671.59 462.946 671.41 461.953Z" fill="#F9C4B7"/>
<path d="M667.488 466.351C667.488 466.351 666.869 464.479 668.097 463.611C669.325 462.732 671.071 461.942 671.466 460.803C672.3 461.503 672.908 462.675 672.829 463.577C672.739 464.479 668.886 468.245 668.886 468.245L667.488 466.351Z" fill="#152F50"/>
<path d="M665.055 461.683C665.055 461.683 664.266 463.397 665.438 464.242C665.754 464.727 666.126 467.174 664.796 467.974C664.796 467.974 662.61 465.945 662.351 463.972C662.182 462.54 663.985 461.469 665.055 461.683Z" fill="#152F50"/>
<path d="M666.373 474.018C667.008 474.018 667.523 473.503 667.523 472.868C667.523 472.233 667.008 471.718 666.373 471.718C665.739 471.718 665.224 472.233 665.224 472.868C665.224 473.503 665.739 474.018 666.373 474.018Z" fill="#152F50"/>
<path d="M665.742 481.336C666.377 481.336 666.891 480.821 666.891 480.186C666.891 479.55 666.377 479.036 665.742 479.036C665.107 479.036 664.593 479.55 664.593 480.186C664.593 480.821 665.107 481.336 665.742 481.336Z" fill="#152F50"/>
<path opacity="0.5" d="M647.647 472.18C647.421 470.805 634.013 472.812 627.591 464.524C626.115 462.213 625.427 457.894 625.529 454.805C624.954 456.395 624.526 458.221 624.425 460.567C624.402 461.694 624.616 463.171 625.258 464.693C625.585 465.392 626.239 466.452 626.565 466.779L627.703 468.042C629.236 469.564 630.689 470.534 632.109 471.425C634.937 473.127 637.664 474.322 640.39 475.439C642.497 476.273 644.571 477.006 646.655 477.694C646.644 477.705 647.872 473.556 647.647 472.18Z" fill="#64C2E7"/>
<path opacity="0.5" d="M666.159 456.992C666.159 456.992 666.182 458.345 665.776 459.868C667.297 460.499 669.201 460.916 671.229 460.51C671.038 458.458 671.072 456.259 671.072 456.259L666.159 456.992Z" fill="#FFBBA6"/>
<path d="M680.626 443.767C680.288 442.65 679.714 441.579 678.88 440.632C677.043 438.512 674.238 437.385 671.455 437.622C666.159 438.253 663.511 442.538 661.754 446.957C659.985 451.377 658.734 454.174 660.999 456.293C663.342 458.481 669.032 458.03 673.697 456.643C678.993 455.053 682.181 448.852 680.626 443.767Z" fill="#F9C4B7"/>
<path d="M664.536 437.576C664.536 437.576 664.649 443.079 674.046 446.427C674.801 447.837 673.145 450.971 670.407 451.941C667.669 452.911 672.142 453.238 674.226 451.941C676.311 450.644 676.029 454.23 674.226 454.489C672.424 454.748 670.204 456.271 670.655 457.353C671.094 458.435 674.914 458.751 679.342 455.075C683.77 451.4 685.719 445.345 684.852 442.21C684.187 439.786 681.731 437.892 679.747 436.55C677.37 434.938 674.576 434.126 672.232 432.423C671.759 432.085 670.632 431.341 670.734 432.446C670.914 434.498 670.046 433.224 668.976 432.581C667.894 431.927 666.812 431.826 667.139 433.337C667.466 434.848 666.936 434.092 665.629 433.551C664.322 433.021 664.367 435.705 664.536 437.576Z" fill="#9D2E24"/>
<path opacity="0.5" d="M682.474 451.501C679.826 451.118 678.035 448.762 678.857 446.653C679.838 444.105 678.688 444.274 672.841 443.203C667.77 442.278 665.213 436.054 664.604 434.386C664.401 435.231 664.447 436.528 664.548 437.588C664.548 437.588 664.661 443.09 674.058 446.439C674.812 447.848 673.156 450.983 670.418 451.952C667.68 452.922 672.153 453.249 674.238 451.952C676.322 450.656 676.041 454.241 674.238 454.501C672.435 454.76 670.215 456.282 670.666 457.365C671.106 458.447 674.925 458.763 679.353 455.087C680.593 454.038 681.618 452.809 682.474 451.501Z" fill="#9D2E24"/>
<path opacity="0.5" d="M698.688 494.888C698.26 493.163 700.097 491.213 699.984 490.344C699.871 489.476 697.494 490.671 696.412 489.375C695.331 488.078 688.198 478.122 687.872 479.047C687.872 479.047 684.672 481.595 683.905 487.131C683.15 492.667 681.517 506.006 679.139 508.171C676.751 510.335 664.83 512.816 670.576 513.639C676.322 514.462 679.793 515.872 678.925 517.608C678.08 519.288 674.801 525.568 649.844 521.881C649.855 522.569 649.855 522.952 649.855 522.952C649.855 522.952 668.435 528.906 682.531 523.336C683.218 515.578 684.852 498 686.869 486.049C686.981 486.128 687.128 486.229 687.274 486.342C687.308 486.376 687.353 486.398 687.398 486.432C687.511 486.522 687.646 486.612 687.77 486.703C687.826 486.736 687.872 486.782 687.928 486.815C688.086 486.928 688.255 487.052 688.424 487.187C688.446 487.21 688.469 487.221 688.491 487.244C688.705 487.402 688.931 487.571 689.156 487.751C691.173 489.285 693.629 491.224 694.102 491.675C694.598 492.103 694.508 492.16 694.756 492.351C694.959 492.566 695.184 493.141 695.409 493.524C697.223 497.673 698.35 503.424 699.229 508.858C699.995 513.617 700.559 518.487 701.021 523.324C701.021 523.279 701.032 523.257 701.043 523.212C701.742 516.413 699.128 496.614 698.688 494.888Z" fill="#64C2E7"/>
<path opacity="0.5" d="M657.709 568.899C657.168 574.458 654.306 575.901 653.946 576.431C653.585 576.972 656.999 577.863 657.709 580.377C658.43 582.891 660.267 603.333 660.267 603.356L659.174 576.645C659.174 576.645 664.12 549.551 666.272 544.916C666.272 544.916 663.624 541.962 662.374 539.989C661.112 538.039 658.239 563.34 657.709 568.899Z" fill="#333333"/>
<path d="M199.689 639.843C198.416 637.847 192.083 639.268 188.737 637.362C186.1 635.862 186.258 631.77 186.258 631.77L180.996 630.969C180.996 630.969 179.543 636.945 179.464 640.993C179.441 642.109 180.275 643.067 181.379 643.248C192.027 644.905 200.286 643.789 200.286 643.789C200.286 643.789 200.962 641.827 199.689 639.843Z" fill="#594A42"/>
<path d="M166.9 637.035C165.661 635.107 160.23 635.186 156.974 633.337C154.416 631.882 155.171 628.004 155.171 628.004L150.123 627.237C150.123 627.237 148.05 632.931 147.983 636.855C147.96 637.937 148.76 638.873 149.83 639.031C160.151 640.632 167.464 640.846 167.464 640.846C167.464 640.846 168.14 638.963 166.9 637.035Z" fill="#594A42"/>
<path d="M193.154 588.292L189.706 534.893L159.858 534.43C159.858 534.43 156.771 541.004 156.377 547.713C155.982 554.421 157.109 576.318 157.109 576.318L156.625 583.647L156.749 582.948L148.861 628.624L155.306 630.168L168.929 585.868L169.053 585.169L173.458 555.605L180.703 589.499L180.207 633.01L186.765 633.596L193.187 589.431L193.221 589.183L193.154 588.292Z" fill="#29A87C"/>
<path opacity="0.5" d="M189.706 534.904L160.05 534.442C159.982 534.442 159.926 534.442 159.858 534.442C159.847 534.476 157.887 538.647 156.895 543.733C162.258 544.048 172.207 544.24 177.075 547.397C182.912 551.174 188.59 560.318 191.734 566.362L189.706 534.904Z" fill="#29A87C"/>
<path opacity="0.5" d="M167.644 561.39C165.492 565.663 167.25 579.475 165.751 581.73C164.241 583.985 161.233 582.271 163.238 584.008C165.244 585.744 159.869 615.263 159.869 615.263L168.906 585.868L169.03 585.169L173.435 555.606C173.447 555.606 169.796 557.116 167.644 561.39Z" fill="#29A87C"/>
<path d="M185.041 446.428C182.596 442.605 175.509 441.895 170.281 445.695C165.053 449.494 169.222 459.541 169.222 459.541C173.301 468.437 183.362 468.967 185.841 465.122C188.32 461.266 187.498 450.25 185.041 446.428Z" fill="#5E4134"/>
<path d="M180.377 464.953C180.377 464.953 179.52 472.304 182.123 476.544C182.123 476.544 177.887 476.983 174.732 476.408C171.566 475.833 175.78 462.653 175.78 462.653C175.78 462.653 179.092 462.653 180.377 464.953Z" fill="#5E4134"/>
<path d="M182.461 438.884C178.473 438.715 173.47 439.629 169.639 441.331C166.292 442.808 164.354 446.326 164.783 449.968C165.447 455.504 167.611 461.311 169.819 464.49C172.726 468.662 180.929 469.801 181.932 467.433C182.946 465.065 181.425 462.438 179.825 461.097C178.213 459.766 180.129 456.305 181.38 457.319C182.641 458.334 183.272 462.326 184.433 461.176C185.594 460.037 180.332 452.753 183.599 452.392C185.988 452.122 187.836 450.239 189.053 447.984C189.965 446.292 190.517 444.398 190.686 442.82C191.148 438.355 185.357 438.997 182.461 438.884Z" fill="#0B5F99"/>
<path d="M171.678 470.726C171.678 470.726 173.785 469.44 176.433 470.049C179.081 470.669 182.202 471.955 182.202 471.955L183.532 475.879C183.532 475.879 178.529 474.65 175.78 474.785C173.019 474.92 170.078 474.965 171.678 470.726Z" fill="#A59C9A"/>
<path d="M144.873 529.346C144.873 529.346 146.664 536.032 147.566 537.452C148.467 538.873 146.574 538.354 145.515 536.539C144.456 534.724 144.231 535.863 144.321 536.494C144.411 537.125 145.031 541.083 144.884 541.985C144.749 542.887 144.208 541.884 143.814 540.418C143.408 538.941 143.115 538.039 143.115 538.039C143.115 538.039 143.104 541.974 142.248 542.335C141.391 542.707 139.521 539.978 138.845 538.276C138.169 536.584 141.459 529.12 141.459 529.12L144.873 529.346Z" fill="#5E4134"/>
<path d="M237.412 462.709C237.412 462.709 241.829 456.846 243.767 454.862C245.705 452.866 249.356 450.656 249.852 451.163C250.347 451.682 247.328 453.847 246.809 454.726C246.291 455.606 248.308 456.215 249.153 458.064C250.009 459.913 248.759 462.247 247.226 462.912C245.694 463.577 243.61 463.352 242.764 464.096C241.931 464.84 240.319 466.058 240.319 466.058L237.412 462.709Z" fill="#5E4134"/>
<path d="M238.145 461.333C233.863 465.088 230.077 469.26 225.694 472.845C223.497 474.638 221.289 476.408 219.08 478.077C217.976 478.911 216.86 479.723 215.79 480.445C215.26 480.794 214.708 481.178 214.258 481.403C214.055 481.505 213.706 481.742 213.638 481.73C213.548 481.719 213.503 481.753 213.435 481.753C213.199 481.617 212.072 481.753 210.844 481.64C209.683 481.595 208.32 481.448 207.024 481.302C204.387 481.009 201.638 480.546 198.923 480.084C197.176 479.78 180.816 473.511 177.571 472.958C176.805 472.823 175.994 472.778 175.216 472.823C168.366 473.206 163.768 474.616 161.042 477.141C160.49 477.558 159.971 478.021 159.521 478.596C158.067 480.467 156.647 482.35 155.216 484.267C152.05 488.563 148.963 492.803 146.067 497.752C144.569 500.188 143.205 503.615 142.676 506.321C142.045 509.129 141.662 511.824 141.38 514.496C140.839 519.852 140.636 525.072 140.636 530.371L145.481 530.789C146.462 525.828 147.679 520.821 149.132 516.052C149.876 513.673 150.698 511.339 151.645 509.242C152.636 507.021 153.515 505.735 155.07 503.999C155.983 502.961 156.974 501.924 158 500.887C157.673 513.921 156.726 530.056 156.4 540.237C170.675 545.627 190.9 541.635 190.9 541.635C190.9 541.635 191.126 517.755 193.447 508.926C194.461 505.104 195.52 499.951 196.05 494.945C196.726 494.922 197.39 494.911 198.066 494.877C201.041 494.719 204.004 494.539 207.08 494.201C208.635 494.02 210.145 493.851 211.824 493.535C213.435 493.242 215.17 492.949 217.627 491.9C218.19 491.607 218.753 491.258 219.294 490.908C219.846 490.547 220.049 490.322 220.432 490.018C221.165 489.431 221.694 488.89 222.269 488.338C223.396 487.244 224.432 486.161 225.435 485.068C227.452 482.892 229.356 480.693 231.238 478.494C235.001 474.074 238.64 469.621 242.235 465.099L238.145 461.333Z" fill="#877F7D"/>
<path opacity="0.5" d="M177.582 449.957C174.236 450.802 176.185 457.973 171.914 458.007C169.515 458.03 167.858 458.075 166.551 457.545C167.486 460.307 168.647 462.765 169.83 464.468C172.737 468.64 180.94 469.779 181.942 467.411C182.957 465.043 181.435 462.416 179.835 461.074C178.224 459.744 180.14 456.282 181.39 457.297C182.652 458.312 183.283 462.303 184.444 461.153C185.604 460.014 180.342 452.73 183.61 452.37C185.999 452.099 187.847 450.216 189.063 447.961C189.976 446.27 190.528 444.376 190.697 442.797C190.697 442.808 188.432 449.709 177.582 449.957Z" fill="#0B5F99"/>
<path opacity="0.5" d="M216.77 488.078C212.894 489.161 202.832 490.457 193.199 489.589C187.869 490.886 188.106 501.022 187.34 514.406C186.573 527.789 185.864 527.891 182.123 529.131C178.382 530.372 178.743 532.536 182.123 532.965C185.379 533.382 178.619 542.199 156.433 538.354C156.411 538.997 156.388 539.628 156.366 540.237C170.641 545.627 190.866 541.635 190.866 541.635C190.866 541.635 191.092 517.755 193.413 508.926C194.427 505.104 195.486 499.951 196.016 494.945C196.692 494.922 197.356 494.911 198.032 494.877C201.007 494.719 203.97 494.539 207.046 494.201C208.601 494.02 210.111 493.851 211.79 493.535C213.401 493.242 215.136 492.949 217.593 491.901C218.156 491.607 218.719 491.258 219.26 490.908C219.812 490.547 220.015 490.322 220.398 490.018C221.131 489.431 221.66 488.89 222.235 488.338C223.361 487.244 224.398 486.161 225.401 485.068C227.418 482.892 229.322 480.693 231.204 478.494C232.398 477.096 233.558 475.675 234.73 474.277C233.818 475.112 220.511 487.041 216.77 488.078Z" fill="#877F7D"/>
<path opacity="0.5" d="M148.85 504.303C147.971 507.37 146.631 525.32 146.631 525.32C146.631 525.32 146.653 525.275 146.687 525.219C147.408 522.118 148.197 519.04 149.109 516.052C149.853 513.673 150.676 511.339 151.622 509.242C152.614 507.021 153.492 505.735 155.047 503.999C155.96 502.962 156.952 501.924 157.977 500.887C157.977 500.887 159.712 489.33 159.881 487.966C160.039 486.613 149.74 501.248 148.85 504.303Z" fill="#877F7D"/>
</g>
<defs>
<clipPath id="clip0_6166_57">
<rect width="794" height="768" fill="white"/>
</clipPath>
</defs>
</svg>
